HIERARCHY
ROOT Hips
{
    OFFSET 0.000000 0.000000 0.000000
    CHANNELS 6 Xposition Yposition Zposition Zrotation Xrotation Yrotation
    JOINT Spine
    {
        OFFSET -0.000000 14.517291 0.000000
        CHANNELS 3 Zrotation Xrotation Yrotation
        JOINT Spine1
        {
            OFFSET -0.000000 37.558300 0.000000
            CHANNELS 3 Zrotation Xrotation Yrotation
            JOINT Neck
            {
                OFFSET -0.000000 37.404057 3.400369
                CHANNELS 3 Zrotation Xrotation Yrotation
                JOINT Head
                {
                    OFFSET -0.000000 24.785618 -3.540803
                    CHANNELS 3 Zrotation Xrotation Yrotation
                    End Site
                    {
                        OFFSET -0.000000 35.408028 0.000000
                    }
                }
            }
            JOINT LeftShoulder
            {
                OFFSET 6.992933 33.973492 -0.192664
                CHANNELS 3 Zrotation Xrotation Yrotation
                JOINT LeftArm
                {
                    OFFSET 21.527611 0.000000 0.000000
                    CHANNELS 3 Zrotation Xrotation Yrotation
                    JOINT LeftForeArm
                    {
                        OFFSET 56.353916 0.000000 0.000000
                        CHANNELS 3 Zrotation Xrotation Yrotation
                        JOINT LeftHand
                        {
                            OFFSET 47.774071 0.000000 0.000000
                            CHANNELS 3 Zrotation Xrotation Yrotation
                            End Site
                            {
                                OFFSET 26.556021 0.000000 0.000000
                            }
                        }
                    }
                }
            }
            JOINT RightShoulder
            {
                OFFSET -7.065357 33.973492 -0.192664
                CHANNELS 3 Zrotation Xrotation Yrotation
                JOINT RightArm
                {
                    OFFSET -21.527611 0.000000 0.000000
                    CHANNELS 3 Zrotation Xrotation Yrotation
                    JOINT RightForeArm
                    {
                        OFFSET -56.353916 0.000000 0.000000
                        CHANNELS 3 Zrotation Xrotation Yrotation
                        JOINT RightHand
                        {
                            OFFSET -47.774071 0.000000 0.000000
                            CHANNELS 3 Zrotation Xrotation Yrotation
                            End Site
                            {
                                OFFSET -26.556021 0.000000 0.000000
                            }
                        }
                    }
                }
            }
        }
    }
    JOINT LeftUpLeg
    {
        OFFSET 17.704014 0.000000 0.000000
        CHANNELS 3 Zrotation Xrotation Yrotation
        JOINT LeftLeg
        {
            OFFSET -0.000000 -81.181816 0.000000
            CHANNELS 3 Zrotation Xrotation Yrotation
            JOINT LeftFoot
            {
                OFFSET -0.000000 -62.821102 0.000000
                CHANNELS 3 Zrotation Xrotation Yrotation
                JOINT LeftToeBase
                {
                    OFFSET -0.000000 -11.507608 26.556021
                    CHANNELS 3 Zrotation Xrotation Yrotation
                    End Site
                    {
                        OFFSET -0.000000 0.000000 7.081605
                    }
                }
            }
        }
    }
    JOINT RightUpLeg
    {
        OFFSET -17.704014 0.000000 0.000000
        CHANNELS 3 Zrotation Xrotation Yrotation
        JOINT RightLeg
        {
            OFFSET -0.000000 -81.181816 0.000000
            CHANNELS 3 Zrotation Xrotation Yrotation
            JOINT RightFoot
            {
                OFFSET -0.000000 -62.821102 0.000000
                CHANNELS 3 Zrotation Xrotation Yrotation
                JOINT RightToeBase
                {
                    OFFSET -0.000000 -11.507608 26.556021
                    CHANNELS 3 Zrotation Xrotation Yrotation
                    End Site
                    {
                        OFFSET -0.000000 0.000000 7.081605
                    }
                }
            }
        }
    }
}
MOTION
Frames:    10
Frame Time:    0.008333
33.483017    160.766052    -100.401939    -2.209609    -1.355904    25.369747    0.012423    -2.408542    -4.299792    -12.239487    0.451162    -1.380105    16.859972    0.736979    1.757610    5.204981    1.182512    0.107379    13.250177    4.227084    -16.664352    -37.235180    5.532759    -52.305851    -6.051318    -27.378073    -112.719086    -7.069268    -34.408215    -14.828740    -17.893915    -3.194417    -10.174651    9.809346    13.502173    13.583486    17.854799    18.222557    -5.915102    8.372141    20.226629    16.183575    10.361594    3.340964    0.227593    -9.133875    19.566483    -17.275337    4.494375    -21.112904    44.108738    0.000000    0.000000    0.000000    -12.641207    -25.656670    -8.399196    11.117432    26.214535    -13.794316    3.878012    13.923108    -11.781296    0.000000    0.000000    0.000000    
33.502789    160.764832    -100.402092    -2.205995    -1.327250    25.453829    -0.002220    -2.415377    -4.276575    -12.133393    0.454053    -1.372425    16.870110    0.704669    1.762948    5.149351    1.142354    0.100842    13.257848    4.217875    -16.646235    -37.287945    5.502621    -52.334827    -6.129907    -27.229311    -112.752098    -7.018642    -34.380543    -14.794357    -17.636967    -3.120155    -10.190864    10.111167    13.720065    13.613785    17.783743    18.028959    -5.810309    8.492881    20.018835    15.989943    10.348029    3.294445    0.220754    -9.121170    19.582779    -17.322306    4.501585    -21.102264    44.081669    0.000000    0.000000    0.000000    -12.688865    -25.652027    -8.412584    11.128342    26.213387    -13.802185    3.891980    13.871173    -11.834887    0.000000    0.000000    0.000000    
33.523544    160.763702    -100.404823    -2.200469    -1.295600    25.535595    -0.013766    -2.422646    -4.254814    -12.038795    0.441093    -1.366850    16.875744    0.724524    1.740145    5.109461    1.071185    0.077186    13.262591    4.212373    -16.631836    -37.292591    5.524447    -52.343758    -6.167390    -27.155178    -112.770325    -6.944283    -34.370804    -14.766691    -17.375307    -3.015722    -10.188459    10.408199    13.720391    13.638341    17.825550    18.002483    -5.728982    8.534618    19.982389    15.908292    10.331660    3.244141    0.190899    -9.121005    19.593378    -17.371357    4.508288    -21.103821    44.097771    0.000000    0.000000    0.000000    -12.743975    -25.646189    -8.405692    11.156495    26.198662    -13.831662    3.904132    13.827555    -11.892097    0.000000    0.000000    0.000000    
33.546162    160.763077    -100.408554    -2.198048    -1.266508    25.604767    -0.024762    -2.434029    -4.224961    -11.941673    0.440089    -1.357367    16.939152    0.690316    1.746730    4.993475    1.055027    0.054731    13.283158    4.210389    -16.603479    -37.267334    5.601924    -52.385906    -6.172300    -27.184374    -112.775604    -6.959456    -34.402889    -14.775423    -17.099190    -2.989917    -10.196592    10.678108    13.954569    13.664251    17.760595    17.960476    -5.601413    8.351233    19.912260    16.158625    10.314139    3.191718    0.192100    -9.106245    19.622749    -17.411427    4.519700    -21.088923    44.066917    0.000000    0.000000    0.000000    -12.786851    -25.646902    -8.402378    11.170327    26.191847    -13.851003    3.907123    13.797300    -11.933664    0.000000    0.000000    0.000000    
33.570816    160.760635    -100.408867    -2.186290    -1.238878    25.669914    -0.047146    -2.448050    -4.195254    -11.834393    0.453311    -1.346372    16.957888    0.665763    1.746585    4.924842    1.021069    0.040332    13.279538    4.225922    -16.572350    -37.155441    5.749952    -52.448906    -6.102959    -27.383200    -112.769569    -7.008876    -34.493744    -14.786352    -16.836992    -2.972606    -10.173591    10.969586    14.224920    13.629591    17.642956    17.810411    -5.411194    8.380430    19.734459    16.158487    10.294856    3.151301    0.148812    -9.123981    19.635286    -17.415707    4.517102    -21.094145    44.075645    0.000000    0.000000    0.000000    -12.835287    -25.641951    -8.403549    11.182366    26.186314    -13.878257    3.922240    13.753265    -11.977052    0.000000    0.000000    0.000000    
33.594109    160.754807    -100.408707    -2.174865    -1.218911    25.740215    -0.076483    -2.457498    -4.174492    -11.715334    0.464898    -1.338539    16.964510    0.648370    1.749398    4.877844    0.991947    0.034517    13.268947    4.227017    -16.550060    -37.116993    5.851488    -52.479744    -6.077664    -27.467083    -112.769539    -7.057895    -34.533165    -14.812910    -16.527699    -2.893347    -10.144239    11.209695    14.194432    13.660998    17.651436    17.711761    -5.387098    8.378347    19.642097    16.280483    10.275357    3.115996    0.116613    -9.121883    19.646620    -17.405813    4.515297    -21.088516    44.035961    0.000000    0.000000    0.000000    -12.884195    -25.632412    -8.402133    11.199480    26.183317    -13.898949    3.917222    13.720834    -12.018996    0.000000    0.000000    0.000000    
33.622734    160.747665    -100.401321    -2.158923    -1.200096    25.803028    -0.113342    -2.485099    -4.154828    -11.569633    0.505767    -1.328215    16.886267    0.610542    1.737820    4.896712    0.988163    0.030933    13.221527    4.216084    -16.518360    -37.030483    5.975087    -52.497837    -6.018734    -27.606291    -112.765335    -7.080417    -34.587414    -14.777816    -16.272678    -2.815832    -10.160812    11.469646    14.303140    13.733356    17.566935    17.570326    -5.269176    8.480957    19.497604    16.315588    10.254396    3.098924    0.079649    -9.124983    19.641150    -17.426331    4.516469    -21.087620    44.025509    0.000000    0.000000    0.000000    -12.933042    -25.622671    -8.414872    11.201444    26.198318    -13.910774    3.943611    13.654391    -12.058599    0.000000    0.000000    0.000000    
33.649254    160.743622    -100.398781    -2.140466    -1.182552    25.856958    -0.151370    -2.486465    -4.120064    -11.417098    0.516732    -1.316026    16.813837    0.532710    1.735127    4.900397    1.025591    0.025917    13.167133    4.191195    -16.505947    -37.017498    6.032496    -52.478172    -6.017782    -27.597696    -112.784958    -7.049361    -34.587177    -14.718462    -16.026619    -2.741648    -10.203390    11.750423    14.432569    13.830068    17.440781    17.473974    -5.168067    8.333980    19.382303    16.603661    10.229673    3.082526    0.038819    -9.133190    19.636713    -17.421869    4.539438    -21.070488    44.012218    0.000000    0.000000    0.000000    -12.982268    -25.617517    -8.410038    11.212976    26.211445    -13.931011    3.965384    13.619850    -12.093043    0.000000    0.000000    0.000000    
33.678497    160.735291    -100.391914    -2.123047    -1.167672    25.908106    -0.193942    -2.510934    -4.086503    -11.239068    0.593010    -1.297893    16.765970    0.382887    1.758605    4.847285    1.094061    0.024781    13.100653    4.151950    -16.429237    -36.939034    6.152322    -52.526093    -5.985689    -27.691681    -112.791908    -7.030826    -34.639519    -14.680037    -15.828890    -2.672302    -10.271587    12.022719    14.339786    13.910409    17.465612    17.401939    -5.055987    8.332440    19.291586    16.545557    10.204820    3.072763    0.015044    -9.129488    19.634933    -17.437635    4.538016    -21.075123    43.995197    0.000000    0.000000    0.000000    -13.031237    -25.613766    -8.430973    11.214617    26.238281    -13.928020    3.971050    13.573140    -12.118303    0.000000    0.000000    0.000000    
33.708996    160.728394    -100.385757    -2.101414    -1.150938    25.956020    -0.207111    -2.464911    -4.049896    -11.126473    0.563358    -1.289173    16.755178    0.183379    1.771066    4.797141    1.253018    -0.003847    13.069108    4.121218    -16.332350    -36.941441    6.167208    -52.533833    -6.076333    -27.501373    -112.847816    -6.908094    -34.598938    -14.644869    -15.562291    -2.667496    -10.353209    12.251987    14.357347    14.007215    17.469646    17.379116    -4.987259    8.378558    19.262018    16.495266    10.175482    3.067174    -0.032543    -9.137541    19.620506    -17.440266    4.551456    -21.058895    44.002594    0.000000    0.000000    0.000000    -13.085033    -25.615114    -8.445354    11.218036    26.273117    -13.926335    3.992019    13.530033    -12.151777    0.000000    0.000000    0.000000    
